<svg width="17px" height="22px" viewBox="0 0 17 22" version="1.1" xmlns="http://www.w3.org/2000/svg" xmlns:xlink="http://www.w3.org/1999/xlink">
    <defs></defs>
    <g id="Ericsson-Design-System-v1.4" stroke="none" stroke-width="1" fill="none" fill-rule="evenodd">
        <g id="Dark-theme" transform="translate(-86.000000, -8624.000000)" fill="#F2F2F2">
            <g id="System-bar" transform="translate(48.000000, 8515.000000)">
                <g id="Deafult" transform="translate(0.000000, 55.000000)">
                    <g id="Systembar" transform="translate(20.000000, 41.000000)">
                        <g id="logo" transform="translate(16.000000, 13.000000)">
                            <g id="icon/econ" transform="translate(0.000000, 0.500000)">
                                <path d="M17.0244375,0.19621875 C17.49825,0.43509375 17.8815,0.84984375 18.06525,1.39321875 C18.2450625,1.93659375 18.19125,2.50096875 17.952375,2.97346875 C17.7135,3.44728125 17.2948125,3.83053125 16.359,4.14421875 L5.74875,7.68140625 C4.8129375,7.99378125 4.249875,7.93471875 3.772125,7.70109375 C3.299625,7.46221875 2.916375,7.04746875 2.7313125,6.50409375 C2.5515,5.95940625 2.606625,5.39634375 2.8455,4.92121875 C3.0830625,4.44871875 3.4978125,4.06546875 4.4375625,3.75309375 L15.049125,0.21590625 C15.983625,-0.09778125 16.5466875,-0.03871875 17.0244375,0.19621875 Z M17.0244375,6.7459875 C17.49825,6.9848625 17.8815,7.3996125 18.06525,7.9429875 C18.2450625,8.4863625 18.19125,9.0507375 17.952375,9.5232375 C17.7135,9.99705 17.2948125,10.3803 16.359,10.6939875 L5.74875,14.231175 C4.8129375,14.54355 4.249875,14.4844875 3.772125,14.2508625 C3.299625,14.0119875 2.916375,13.5972375 2.7313125,13.0538625 C2.5515,12.509175 2.606625,11.9461125 2.8455,11.4723 C3.0830625,10.9984875 3.4978125,10.6152375 4.4375625,10.3028625 L15.049125,6.765675 C15.983625,6.4519875 16.5466875,6.51105 17.0244375,6.7459875 Z M17.0244375,13.2994312 C17.49825,13.5383062 17.8815,13.9530563 18.06525,14.4964313 C18.2450625,15.0411188 18.19125,15.6041812 17.952375,16.0779938 C17.7135,16.5504938 17.2948125,16.9337438 16.359,17.2474313 L5.74875,20.7846187 C4.8129375,21.0969937 4.249875,21.0379312 3.772125,20.8043062 C3.299625,20.5654312 2.916375,20.1506813 2.7313125,19.6073063 C2.5515,19.0626188 2.606625,18.4995563 2.8455,18.0257438 C3.0830625,17.5519312 3.4978125,17.1686813 4.4375625,16.8563062 L15.049125,13.3191187 C15.983625,13.0054312 16.5466875,13.0644938 17.0244375,13.2994312 Z" id="Shape"></path>
                            </g>
                        </g>
                    </g>
                </g>
            </g>
        </g>
    </g>
</svg>
